<?xml version="1.0" encoding="utf-8" standalone="no"?>
<!DOCTYPE svg PUBLIC "-//W3C//DTD SVG 1.1//EN"
  "http://www.w3.org/Graphics/SVG/1.1/DTD/svg11.dtd">
<svg xmlns:xlink="http://www.w3.org/1999/xlink" width="572.4pt" height="208.44pt" viewBox="0 0 572.4 208.44" xmlns="http://www.w3.org/2000/svg" version="1.1">
 <metadata>
  <rdf:RDF xmlns:dc="http://purl.org/dc/elements/1.1/" xmlns:cc="http://creativecommons.org/ns#" xmlns:rdf="http://www.w3.org/1999/02/22-rdf-syntax-ns#">
   <cc:Work>
    <dc:type rdf:resource="http://purl.org/dc/dcmitype/StillImage"/>
    <dc:date>2023-12-20T16:47:20.267848</dc:date>
    <dc:format>image/svg+xml</dc:format>
    <dc:creator>
     <cc:Agent>
      <dc:title>Matplotlib v3.8.2, https://matplotlib.org/</dc:title>
     </cc:Agent>
    </dc:creator>
   </cc:Work>
  </rdf:RDF>
 </metadata>
 <defs>
  <style type="text/css">*{stroke-linejoin: round; stroke-linecap: butt}</style>
 </defs>
 <g id="figure_1">
  <g id="patch_1">
   <path d="M 0 208.44 
L 572.4 208.44 
L 572.4 0 
L 0 0 
z
" style="fill: #ffffff"/>
  </g>
  <g id="axes_1">
   <g id="line2d_1">
    <path d="M 14.659893 63.733155 
L 39.526203 38.866845 
L 64.392513 63.733155 
L 89.258824 38.866845 
L 114.125134 63.733155 
L 138.991444 38.866845 
" clip-path="url(#p0d9cb6d348)" style="fill: none; stroke: #000000; stroke-linecap: square"/>
    <defs>
     <path id="m1e0f6bb7d0" d="M 0 2 
C 0.530406 2 1.03916 1.789267 1.414214 1.414214 
C 1.789267 1.03916 2 0.530406 2 0 
C 2 -0.530406 1.789267 -1.03916 1.414214 -1.414214 
C 1.03916 -1.789267 0.530406 -2 0 -2 
C -0.530406 -2 -1.03916 -1.789267 -1.414214 -1.414214 
C -1.789267 -1.03916 -2 -0.530406 -2 0 
C -2 0.530406 -1.789267 1.03916 -1.414214 1.414214 
C -1.03916 1.789267 -0.530406 2 0 2 
z
" style="stroke: #000000"/>
    </defs>
    <g clip-path="url(#p0d9cb6d348)">
     <use xlink:href="#m1e0f6bb7d0" x="14.659893" y="63.733155" style="stroke: #000000"/>
     <use xlink:href="#m1e0f6bb7d0" x="39.526203" y="38.866845" style="stroke: #000000"/>
     <use xlink:href="#m1e0f6bb7d0" x="64.392513" y="63.733155" style="stroke: #000000"/>
     <use xlink:href="#m1e0f6bb7d0" x="89.258824" y="38.866845" style="stroke: #000000"/>
     <use xlink:href="#m1e0f6bb7d0" x="114.125134" y="63.733155" style="stroke: #000000"/>
     <use xlink:href="#m1e0f6bb7d0" x="138.991444" y="38.866845" style="stroke: #000000"/>
    </g>
   </g>
   <g id="line2d_2">
    <path d="M 138.991444 38.866845 
L 163.857754 63.733155 
" clip-path="url(#p0d9cb6d348)" style="fill: none; stroke-dasharray: 3.7,1.6; stroke-dashoffset: 0; stroke: #000000"/>
   </g>
   <g id="text_1">
    <!-- (0,0) -->
    <g transform="translate(19.633155 63.733155) scale(0.08 -0.08)">
     <defs>
      <path id="DejaVuSans-28" d="M 1984 4856 
Q 1566 4138 1362 3434 
Q 1159 2731 1159 2009 
Q 1159 1288 1364 580 
Q 1569 -128 1984 -844 
L 1484 -844 
Q 1016 -109 783 600 
Q 550 1309 550 2009 
Q 550 2706 781 3412 
Q 1013 4119 1484 4856 
L 1984 4856 
z
" transform="scale(0.015625)"/>
      <path id="DejaVuSans-30" d="M 2034 4250 
Q 1547 4250 1301 3770 
Q 1056 3291 1056 2328 
Q 1056 1369 1301 889 
Q 1547 409 2034 409 
Q 2525 409 2770 889 
Q 3016 1369 3016 2328 
Q 3016 3291 2770 3770 
Q 2525 4250 2034 4250 
z
M 2034 4750 
Q 2819 4750 3233 4129 
Q 3647 3509 3647 2328 
Q 3647 1150 3233 529 
Q 2819 -91 2034 -91 
Q 1250 -91 836 529 
Q 422 1150 422 2328 
Q 422 3509 836 4129 
Q 1250 4750 2034 4750 
z
" transform="scale(0.015625)"/>
      <path id="DejaVuSans-2c" d="M 750 794 
L 1409 794 
L 1409 256 
L 897 -744 
L 494 -744 
L 750 256 
L 750 794 
z
" transform="scale(0.015625)"/>
      <path id="DejaVuSans-29" d="M 513 4856 
L 1013 4856 
Q 1481 4119 1714 3412 
Q 1947 2706 1947 2009 
Q 1947 1309 1714 600 
Q 1481 -109 1013 -844 
L 513 -844 
Q 928 -128 1133 580 
Q 1338 1288 1338 2009 
Q 1338 2731 1133 3434 
Q 928 4138 513 4856 
z
" transform="scale(0.015625)"/>
     </defs>
     <use xlink:href="#DejaVuSans-28"/>
     <use xlink:href="#DejaVuSans-30" x="39.013672"/>
     <use xlink:href="#DejaVuSans-2c" x="102.636719"/>
     <use xlink:href="#DejaVuSans-30" x="134.423828"/>
     <use xlink:href="#DejaVuSans-29" x="198.046875"/>
    </g>
   </g>
   <g id="text_2">
    <!-- (1,1) -->
    <g transform="translate(44.499465 38.866845) scale(0.08 -0.08)">
     <defs>
      <path id="DejaVuSans-31" d="M 794 531 
L 1825 531 
L 1825 4091 
L 703 3866 
L 703 4441 
L 1819 4666 
L 2450 4666 
L 2450 531 
L 3481 531 
L 3481 0 
L 794 0 
L 794 531 
z
" transform="scale(0.015625)"/>
     </defs>
     <use xlink:href="#DejaVuSans-28"/>
     <use xlink:href="#DejaVuSans-31" x="39.013672"/>
     <use xlink:href="#DejaVuSans-2c" x="102.636719"/>
     <use xlink:href="#DejaVuSans-31" x="134.423828"/>
     <use xlink:href="#DejaVuSans-29" x="198.046875"/>
    </g>
   </g>
   <g id="text_3">
    <!-- (2,0) -->
    <g transform="translate(69.365775 63.733155) scale(0.08 -0.08)">
     <defs>
      <path id="DejaVuSans-32" d="M 1228 531 
L 3431 531 
L 3431 0 
L 469 0 
L 469 531 
Q 828 903 1448 1529 
Q 2069 2156 2228 2338 
Q 2531 2678 2651 2914 
Q 2772 3150 2772 3378 
Q 2772 3750 2511 3984 
Q 2250 4219 1831 4219 
Q 1534 4219 1204 4116 
Q 875 4013 500 3803 
L 500 4441 
Q 881 4594 1212 4672 
Q 1544 4750 1819 4750 
Q 2544 4750 2975 4387 
Q 3406 4025 3406 3419 
Q 3406 3131 3298 2873 
Q 3191 2616 2906 2266 
Q 2828 2175 2409 1742 
Q 1991 1309 1228 531 
z
" transform="scale(0.015625)"/>
     </defs>
     <use xlink:href="#DejaVuSans-28"/>
     <use xlink:href="#DejaVuSans-32" x="39.013672"/>
     <use xlink:href="#DejaVuSans-2c" x="102.636719"/>
     <use xlink:href="#DejaVuSans-30" x="134.423828"/>
     <use xlink:href="#DejaVuSans-29" x="198.046875"/>
    </g>
   </g>
   <g id="text_4">
    <!-- (3,1) -->
    <g transform="translate(94.232086 38.866845) scale(0.08 -0.08)">
     <defs>
      <path id="DejaVuSans-33" d="M 2597 2516 
Q 3050 2419 3304 2112 
Q 3559 1806 3559 1356 
Q 3559 666 3084 287 
Q 2609 -91 1734 -91 
Q 1441 -91 1130 -33 
Q 819 25 488 141 
L 488 750 
Q 750 597 1062 519 
Q 1375 441 1716 441 
Q 2309 441 2620 675 
Q 2931 909 2931 1356 
Q 2931 1769 2642 2001 
Q 2353 2234 1838 2234 
L 1294 2234 
L 1294 2753 
L 1863 2753 
Q 2328 2753 2575 2939 
Q 2822 3125 2822 3475 
Q 2822 3834 2567 4026 
Q 2313 4219 1838 4219 
Q 1578 4219 1281 4162 
Q 984 4106 628 3988 
L 628 4550 
Q 988 4650 1302 4700 
Q 1616 4750 1894 4750 
Q 2613 4750 3031 4423 
Q 3450 4097 3450 3541 
Q 3450 3153 3228 2886 
Q 3006 2619 2597 2516 
z
" transform="scale(0.015625)"/>
     </defs>
     <use xlink:href="#DejaVuSans-28"/>
     <use xlink:href="#DejaVuSans-33" x="39.013672"/>
     <use xlink:href="#DejaVuSans-2c" x="102.636719"/>
     <use xlink:href="#DejaVuSans-31" x="134.423828"/>
     <use xlink:href="#DejaVuSans-29" x="198.046875"/>
    </g>
   </g>
   <g id="text_5">
    <!-- (4,0) -->
    <g transform="translate(119.098396 63.733155) scale(0.08 -0.08)">
     <defs>
      <path id="DejaVuSans-34" d="M 2419 4116 
L 825 1625 
L 2419 1625 
L 2419 4116 
z
M 2253 4666 
L 3047 4666 
L 3047 1625 
L 3713 1625 
L 3713 1100 
L 3047 1100 
L 3047 0 
L 2419 0 
L 2419 1100 
L 313 1100 
L 313 1709 
L 2253 4666 
z
" transform="scale(0.015625)"/>
     </defs>
     <use xlink:href="#DejaVuSans-28"/>
     <use xlink:href="#DejaVuSans-34" x="39.013672"/>
     <use xlink:href="#DejaVuSans-2c" x="102.636719"/>
     <use xlink:href="#DejaVuSans-30" x="134.423828"/>
     <use xlink:href="#DejaVuSans-29" x="198.046875"/>
    </g>
   </g>
  </g>
  <g id="axes_2">
   <g id="line2d_3">
    <path d="M 246.109091 91.390909 
L 246.109091 64.663636 
L 272.836364 64.663636 
L 272.836364 37.936364 
L 299.563636 37.936364 
L 299.563636 11.209091 
" clip-path="url(#p728ce86d57)" style="fill: none; stroke: #000000; stroke-linecap: square"/>
    <g clip-path="url(#p728ce86d57)">
     <use xlink:href="#m1e0f6bb7d0" x="246.109091" y="91.390909" style="stroke: #000000"/>
     <use xlink:href="#m1e0f6bb7d0" x="246.109091" y="64.663636" style="stroke: #000000"/>
     <use xlink:href="#m1e0f6bb7d0" x="272.836364" y="64.663636" style="stroke: #000000"/>
     <use xlink:href="#m1e0f6bb7d0" x="272.836364" y="37.936364" style="stroke: #000000"/>
     <use xlink:href="#m1e0f6bb7d0" x="299.563636" y="37.936364" style="stroke: #000000"/>
     <use xlink:href="#m1e0f6bb7d0" x="299.563636" y="11.209091" style="stroke: #000000"/>
    </g>
   </g>
   <g id="line2d_4">
    <path d="M 299.563636 11.209091 
L 326.290909 11.209091 
" clip-path="url(#p728ce86d57)" style="fill: none; stroke-dasharray: 3.7,1.6; stroke-dashoffset: 0; stroke: #000000"/>
   </g>
   <g id="text_6">
    <!-- (0,0) -->
    <g transform="translate(248.781818 91.390909) scale(0.08 -0.08)">
     <use xlink:href="#DejaVuSans-28"/>
     <use xlink:href="#DejaVuSans-30" x="39.013672"/>
     <use xlink:href="#DejaVuSans-2c" x="102.636719"/>
     <use xlink:href="#DejaVuSans-30" x="134.423828"/>
     <use xlink:href="#DejaVuSans-29" x="198.046875"/>
    </g>
   </g>
   <g id="text_7">
    <!-- (0,1) -->
    <g transform="translate(246.109091 61.990909) scale(0.08 -0.08)">
     <use xlink:href="#DejaVuSans-28"/>
     <use xlink:href="#DejaVuSans-30" x="39.013672"/>
     <use xlink:href="#DejaVuSans-2c" x="102.636719"/>
     <use xlink:href="#DejaVuSans-31" x="134.423828"/>
     <use xlink:href="#DejaVuSans-29" x="198.046875"/>
    </g>
   </g>
   <g id="text_8">
    <!-- (1,1) -->
    <g transform="translate(275.509091 64.663636) scale(0.08 -0.08)">
     <use xlink:href="#DejaVuSans-28"/>
     <use xlink:href="#DejaVuSans-31" x="39.013672"/>
     <use xlink:href="#DejaVuSans-2c" x="102.636719"/>
     <use xlink:href="#DejaVuSans-31" x="134.423828"/>
     <use xlink:href="#DejaVuSans-29" x="198.046875"/>
    </g>
   </g>
   <g id="text_9">
    <!-- (1,2) -->
    <g transform="translate(272.836364 35.263636) scale(0.08 -0.08)">
     <use xlink:href="#DejaVuSans-28"/>
     <use xlink:href="#DejaVuSans-31" x="39.013672"/>
     <use xlink:href="#DejaVuSans-2c" x="102.636719"/>
     <use xlink:href="#DejaVuSans-32" x="134.423828"/>
     <use xlink:href="#DejaVuSans-29" x="198.046875"/>
    </g>
   </g>
   <g id="text_10">
    <!-- (2,2) -->
    <g transform="translate(302.236364 37.936364) scale(0.08 -0.08)">
     <use xlink:href="#DejaVuSans-28"/>
     <use xlink:href="#DejaVuSans-32" x="39.013672"/>
     <use xlink:href="#DejaVuSans-2c" x="102.636719"/>
     <use xlink:href="#DejaVuSans-32" x="134.423828"/>
     <use xlink:href="#DejaVuSans-29" x="198.046875"/>
    </g>
   </g>
  </g>
  <g id="axes_3">
   <g id="line2d_5">
    <path d="M 408.542246 86.112834 
L 408.542246 36.380214 
L 458.274866 36.380214 
L 458.274866 86.112834 
L 508.007487 86.112834 
L 508.007487 36.380214 
L 557.740107 36.380214 
" clip-path="url(#pdcf4225132)" style="fill: none; stroke: #000000; stroke-linecap: square"/>
    <g clip-path="url(#pdcf4225132)">
     <use xlink:href="#m1e0f6bb7d0" x="408.542246" y="86.112834" style="stroke: #000000"/>
     <use xlink:href="#m1e0f6bb7d0" x="408.542246" y="36.380214" style="stroke: #000000"/>
     <use xlink:href="#m1e0f6bb7d0" x="458.274866" y="36.380214" style="stroke: #000000"/>
     <use xlink:href="#m1e0f6bb7d0" x="458.274866" y="86.112834" style="stroke: #000000"/>
     <use xlink:href="#m1e0f6bb7d0" x="508.007487" y="86.112834" style="stroke: #000000"/>
     <use xlink:href="#m1e0f6bb7d0" x="508.007487" y="36.380214" style="stroke: #000000"/>
     <use xlink:href="#m1e0f6bb7d0" x="557.740107" y="36.380214" style="stroke: #000000"/>
    </g>
   </g>
   <g id="line2d_6">
    <path d="M 557.740107 36.380214 
L 557.740107 86.112834 
" clip-path="url(#pdcf4225132)" style="fill: none; stroke-dasharray: 3.7,1.6; stroke-dashoffset: 0; stroke: #000000"/>
   </g>
   <g id="text_11">
    <!-- (0,0) -->
    <g transform="translate(413.515508 86.112834) scale(0.08 -0.08)">
     <use xlink:href="#DejaVuSans-28"/>
     <use xlink:href="#DejaVuSans-30" x="39.013672"/>
     <use xlink:href="#DejaVuSans-2c" x="102.636719"/>
     <use xlink:href="#DejaVuSans-30" x="134.423828"/>
     <use xlink:href="#DejaVuSans-29" x="198.046875"/>
    </g>
   </g>
   <g id="text_12">
    <!-- (0,1) -->
    <g transform="translate(408.542246 31.406952) scale(0.08 -0.08)">
     <use xlink:href="#DejaVuSans-28"/>
     <use xlink:href="#DejaVuSans-30" x="39.013672"/>
     <use xlink:href="#DejaVuSans-2c" x="102.636719"/>
     <use xlink:href="#DejaVuSans-31" x="134.423828"/>
     <use xlink:href="#DejaVuSans-29" x="198.046875"/>
    </g>
   </g>
   <g id="text_13">
    <!-- (1,1) -->
    <g transform="translate(458.274866 31.406952) scale(0.08 -0.08)">
     <use xlink:href="#DejaVuSans-28"/>
     <use xlink:href="#DejaVuSans-31" x="39.013672"/>
     <use xlink:href="#DejaVuSans-2c" x="102.636719"/>
     <use xlink:href="#DejaVuSans-31" x="134.423828"/>
     <use xlink:href="#DejaVuSans-29" x="198.046875"/>
    </g>
   </g>
   <g id="text_14">
    <!-- (1,0) -->
    <g transform="translate(463.248128 81.139572) scale(0.08 -0.08)">
     <use xlink:href="#DejaVuSans-28"/>
     <use xlink:href="#DejaVuSans-31" x="39.013672"/>
     <use xlink:href="#DejaVuSans-2c" x="102.636719"/>
     <use xlink:href="#DejaVuSans-30" x="134.423828"/>
     <use xlink:href="#DejaVuSans-29" x="198.046875"/>
    </g>
   </g>
   <g id="text_15">
    <!-- (2,0) -->
    <g transform="translate(512.980749 86.112834) scale(0.08 -0.08)">
     <use xlink:href="#DejaVuSans-28"/>
     <use xlink:href="#DejaVuSans-32" x="39.013672"/>
     <use xlink:href="#DejaVuSans-2c" x="102.636719"/>
     <use xlink:href="#DejaVuSans-30" x="134.423828"/>
     <use xlink:href="#DejaVuSans-29" x="198.046875"/>
    </g>
   </g>
   <g id="text_16">
    <!-- (2,1) -->
    <g transform="translate(508.007487 31.406952) scale(0.08 -0.08)">
     <use xlink:href="#DejaVuSans-28"/>
     <use xlink:href="#DejaVuSans-32" x="39.013672"/>
     <use xlink:href="#DejaVuSans-2c" x="102.636719"/>
     <use xlink:href="#DejaVuSans-31" x="134.423828"/>
     <use xlink:href="#DejaVuSans-29" x="198.046875"/>
    </g>
   </g>
  </g>
  <g id="axes_4">
   <g id="line2d_7">
    <path d="M 14.659893 157.14 
L 14.659893 119.840535 
L 51.959358 157.14 
L 89.258824 194.439465 
L 89.258824 157.14 
L 89.258824 119.840535 
L 126.558289 157.14 
L 163.857754 194.439465 
L 163.857754 157.14 
" clip-path="url(#p807491ae31)" style="fill: none; stroke: #000000; stroke-linecap: square"/>
    <g clip-path="url(#p807491ae31)">
     <use xlink:href="#m1e0f6bb7d0" x="14.659893" y="157.14" style="stroke: #000000"/>
     <use xlink:href="#m1e0f6bb7d0" x="14.659893" y="119.840535" style="stroke: #000000"/>
     <use xlink:href="#m1e0f6bb7d0" x="51.959358" y="157.14" style="stroke: #000000"/>
     <use xlink:href="#m1e0f6bb7d0" x="89.258824" y="194.439465" style="stroke: #000000"/>
     <use xlink:href="#m1e0f6bb7d0" x="89.258824" y="157.14" style="stroke: #000000"/>
     <use xlink:href="#m1e0f6bb7d0" x="89.258824" y="119.840535" style="stroke: #000000"/>
     <use xlink:href="#m1e0f6bb7d0" x="126.558289" y="157.14" style="stroke: #000000"/>
     <use xlink:href="#m1e0f6bb7d0" x="163.857754" y="194.439465" style="stroke: #000000"/>
     <use xlink:href="#m1e0f6bb7d0" x="163.857754" y="157.14" style="stroke: #000000"/>
    </g>
   </g>
   <g id="line2d_8">
    <path d="M 163.857754 157.14 
L 163.857754 119.840535 
" clip-path="url(#p807491ae31)" style="fill: none; stroke-dasharray: 3.7,1.6; stroke-dashoffset: 0; stroke: #000000"/>
   </g>
   <g id="text_17">
    <!-- (0,0) -->
    <g transform="translate(18.38984 157.14) scale(0.08 -0.08)">
     <use xlink:href="#DejaVuSans-28"/>
     <use xlink:href="#DejaVuSans-30" x="39.013672"/>
     <use xlink:href="#DejaVuSans-2c" x="102.636719"/>
     <use xlink:href="#DejaVuSans-30" x="134.423828"/>
     <use xlink:href="#DejaVuSans-29" x="198.046875"/>
    </g>
   </g>
   <g id="text_18">
    <!-- (0,1) -->
    <g transform="translate(18.38984 119.840535) scale(0.08 -0.08)">
     <use xlink:href="#DejaVuSans-28"/>
     <use xlink:href="#DejaVuSans-30" x="39.013672"/>
     <use xlink:href="#DejaVuSans-2c" x="102.636719"/>
     <use xlink:href="#DejaVuSans-31" x="134.423828"/>
     <use xlink:href="#DejaVuSans-29" x="198.046875"/>
    </g>
   </g>
   <g id="text_19">
    <!-- (1,0) -->
    <g transform="translate(55.689305 157.14) scale(0.08 -0.08)">
     <use xlink:href="#DejaVuSans-28"/>
     <use xlink:href="#DejaVuSans-31" x="39.013672"/>
     <use xlink:href="#DejaVuSans-2c" x="102.636719"/>
     <use xlink:href="#DejaVuSans-30" x="134.423828"/>
     <use xlink:href="#DejaVuSans-29" x="198.046875"/>
    </g>
   </g>
   <g id="text_20">
    <!-- (2,-1) -->
    <g transform="translate(92.98877 194.439465) scale(0.08 -0.08)">
     <defs>
      <path id="DejaVuSans-2d" d="M 313 2009 
L 1997 2009 
L 1997 1497 
L 313 1497 
L 313 2009 
z
" transform="scale(0.015625)"/>
     </defs>
     <use xlink:href="#DejaVuSans-28"/>
     <use xlink:href="#DejaVuSans-32" x="39.013672"/>
     <use xlink:href="#DejaVuSans-2c" x="102.636719"/>
     <use xlink:href="#DejaVuSans-2d" x="134.423828"/>
     <use xlink:href="#DejaVuSans-31" x="170.507812"/>
     <use xlink:href="#DejaVuSans-29" x="234.130859"/>
    </g>
   </g>
   <g id="text_21">
    <!-- (2,0) -->
    <g transform="translate(92.98877 157.14) scale(0.08 -0.08)">
     <use xlink:href="#DejaVuSans-28"/>
     <use xlink:href="#DejaVuSans-32" x="39.013672"/>
     <use xlink:href="#DejaVuSans-2c" x="102.636719"/>
     <use xlink:href="#DejaVuSans-30" x="134.423828"/>
     <use xlink:href="#DejaVuSans-29" x="198.046875"/>
    </g>
   </g>
   <g id="text_22">
    <!-- (2,1) -->
    <g transform="translate(92.98877 119.840535) scale(0.08 -0.08)">
     <use xlink:href="#DejaVuSans-28"/>
     <use xlink:href="#DejaVuSans-32" x="39.013672"/>
     <use xlink:href="#DejaVuSans-2c" x="102.636719"/>
     <use xlink:href="#DejaVuSans-31" x="134.423828"/>
     <use xlink:href="#DejaVuSans-29" x="198.046875"/>
    </g>
   </g>
   <g id="text_23">
    <!-- (3,0) -->
    <g transform="translate(130.288235 157.14) scale(0.08 -0.08)">
     <use xlink:href="#DejaVuSans-28"/>
     <use xlink:href="#DejaVuSans-33" x="39.013672"/>
     <use xlink:href="#DejaVuSans-2c" x="102.636719"/>
     <use xlink:href="#DejaVuSans-30" x="134.423828"/>
     <use xlink:href="#DejaVuSans-29" x="198.046875"/>
    </g>
   </g>
   <g id="text_24">
    <!-- (4,-1) -->
    <g transform="translate(141.478075 194.439465) scale(0.08 -0.08)">
     <use xlink:href="#DejaVuSans-28"/>
     <use xlink:href="#DejaVuSans-34" x="39.013672"/>
     <use xlink:href="#DejaVuSans-2c" x="102.636719"/>
     <use xlink:href="#DejaVuSans-2d" x="134.423828"/>
     <use xlink:href="#DejaVuSans-31" x="170.507812"/>
     <use xlink:href="#DejaVuSans-29" x="234.130859"/>
    </g>
   </g>
  </g>
  <g id="axes_5">
   <g id="line2d_9">
    <path d="M 286.2 170.503636 
L 312.927273 170.503636 
L 312.927273 143.776364 
L 259.472727 143.776364 
L 259.472727 197.230909 
L 339.654545 197.230909 
L 339.654545 117.049091 
" clip-path="url(#pf9af9b6cab)" style="fill: none; stroke: #000000; stroke-linecap: square"/>
    <g clip-path="url(#pf9af9b6cab)">
     <use xlink:href="#m1e0f6bb7d0" x="286.2" y="170.503636" style="stroke: #000000"/>
     <use xlink:href="#m1e0f6bb7d0" x="312.927273" y="170.503636" style="stroke: #000000"/>
     <use xlink:href="#m1e0f6bb7d0" x="312.927273" y="143.776364" style="stroke: #000000"/>
     <use xlink:href="#m1e0f6bb7d0" x="259.472727" y="143.776364" style="stroke: #000000"/>
     <use xlink:href="#m1e0f6bb7d0" x="259.472727" y="197.230909" style="stroke: #000000"/>
     <use xlink:href="#m1e0f6bb7d0" x="339.654545" y="197.230909" style="stroke: #000000"/>
     <use xlink:href="#m1e0f6bb7d0" x="339.654545" y="117.049091" style="stroke: #000000"/>
    </g>
   </g>
   <g id="line2d_10">
    <path d="M 339.654545 117.049091 
L 232.745455 117.049091 
" clip-path="url(#pf9af9b6cab)" style="fill: none; stroke-dasharray: 3.7,1.6; stroke-dashoffset: 0; stroke: #000000"/>
   </g>
   <g id="text_25">
    <!-- (0,0) -->
    <g transform="translate(278.181818 166.494545) scale(0.08 -0.08)">
     <use xlink:href="#DejaVuSans-28"/>
     <use xlink:href="#DejaVuSans-30" x="39.013672"/>
     <use xlink:href="#DejaVuSans-2c" x="102.636719"/>
     <use xlink:href="#DejaVuSans-30" x="134.423828"/>
     <use xlink:href="#DejaVuSans-29" x="198.046875"/>
    </g>
   </g>
   <g id="text_26">
    <!-- (1,0) -->
    <g transform="translate(315.6 170.503636) scale(0.08 -0.08)">
     <use xlink:href="#DejaVuSans-28"/>
     <use xlink:href="#DejaVuSans-31" x="39.013672"/>
     <use xlink:href="#DejaVuSans-2c" x="102.636719"/>
     <use xlink:href="#DejaVuSans-30" x="134.423828"/>
     <use xlink:href="#DejaVuSans-29" x="198.046875"/>
    </g>
   </g>
   <g id="text_27">
    <!-- (1,1) -->
    <g transform="translate(315.6 143.776364) scale(0.08 -0.08)">
     <use xlink:href="#DejaVuSans-28"/>
     <use xlink:href="#DejaVuSans-31" x="39.013672"/>
     <use xlink:href="#DejaVuSans-2c" x="102.636719"/>
     <use xlink:href="#DejaVuSans-31" x="134.423828"/>
     <use xlink:href="#DejaVuSans-29" x="198.046875"/>
    </g>
   </g>
   <g id="text_28">
    <!-- (-1,1) -->
    <g transform="translate(259.472727 141.103636) scale(0.08 -0.08)">
     <use xlink:href="#DejaVuSans-28"/>
     <use xlink:href="#DejaVuSans-2d" x="39.013672"/>
     <use xlink:href="#DejaVuSans-31" x="75.097656"/>
     <use xlink:href="#DejaVuSans-2c" x="138.720703"/>
     <use xlink:href="#DejaVuSans-31" x="170.507812"/>
     <use xlink:href="#DejaVuSans-29" x="234.130859"/>
    </g>
   </g>
   <g id="text_29">
    <!-- (-1,-1) -->
    <g transform="translate(262.145455 194.558182) scale(0.08 -0.08)">
     <use xlink:href="#DejaVuSans-28"/>
     <use xlink:href="#DejaVuSans-2d" x="39.013672"/>
     <use xlink:href="#DejaVuSans-31" x="75.097656"/>
     <use xlink:href="#DejaVuSans-2c" x="138.720703"/>
     <use xlink:href="#DejaVuSans-2d" x="170.507812"/>
     <use xlink:href="#DejaVuSans-31" x="206.591797"/>
     <use xlink:href="#DejaVuSans-29" x="270.214844"/>
    </g>
   </g>
   <g id="text_30">
    <!-- (2,-1) -->
    <g transform="translate(315.6 194.558182) scale(0.08 -0.08)">
     <use xlink:href="#DejaVuSans-28"/>
     <use xlink:href="#DejaVuSans-32" x="39.013672"/>
     <use xlink:href="#DejaVuSans-2c" x="102.636719"/>
     <use xlink:href="#DejaVuSans-2d" x="134.423828"/>
     <use xlink:href="#DejaVuSans-31" x="170.507812"/>
     <use xlink:href="#DejaVuSans-29" x="234.130859"/>
    </g>
   </g>
  </g>
  <g id="axes_6">
   <g id="line2d_11">
    <path d="M 489.822995 170.503636 
L 503.186631 157.14 
L 489.822995 143.776364 
L 463.095722 170.503636 
L 489.822995 197.230909 
L 529.913904 157.14 
L 489.822995 117.049091 
" clip-path="url(#p3ee0de9d58)" style="fill: none; stroke: #000000; stroke-linecap: square"/>
    <g clip-path="url(#p3ee0de9d58)">
     <use xlink:href="#m1e0f6bb7d0" x="489.822995" y="170.503636" style="stroke: #000000"/>
     <use xlink:href="#m1e0f6bb7d0" x="503.186631" y="157.14" style="stroke: #000000"/>
     <use xlink:href="#m1e0f6bb7d0" x="489.822995" y="143.776364" style="stroke: #000000"/>
     <use xlink:href="#m1e0f6bb7d0" x="463.095722" y="170.503636" style="stroke: #000000"/>
     <use xlink:href="#m1e0f6bb7d0" x="489.822995" y="197.230909" style="stroke: #000000"/>
     <use xlink:href="#m1e0f6bb7d0" x="529.913904" y="157.14" style="stroke: #000000"/>
     <use xlink:href="#m1e0f6bb7d0" x="489.822995" y="117.049091" style="stroke: #000000"/>
    </g>
   </g>
   <g id="line2d_12">
    <path d="M 489.822995 117.049091 
L 436.368449 170.503636 
" clip-path="url(#p3ee0de9d58)" style="fill: none; stroke-dasharray: 3.7,1.6; stroke-dashoffset: 0; stroke: #000000"/>
   </g>
   <g id="text_31">
    <!-- (0,0) -->
    <g transform="translate(492.495722 170.503636) scale(0.08 -0.08)">
     <use xlink:href="#DejaVuSans-28"/>
     <use xlink:href="#DejaVuSans-30" x="39.013672"/>
     <use xlink:href="#DejaVuSans-2c" x="102.636719"/>
     <use xlink:href="#DejaVuSans-30" x="134.423828"/>
     <use xlink:href="#DejaVuSans-29" x="198.046875"/>
    </g>
   </g>
   <g id="text_32">
    <!-- (1,1) -->
    <g transform="translate(503.186631 155.803636) scale(0.08 -0.08)">
     <use xlink:href="#DejaVuSans-28"/>
     <use xlink:href="#DejaVuSans-31" x="39.013672"/>
     <use xlink:href="#DejaVuSans-2c" x="102.636719"/>
     <use xlink:href="#DejaVuSans-31" x="134.423828"/>
     <use xlink:href="#DejaVuSans-29" x="198.046875"/>
    </g>
   </g>
   <g id="text_33">
    <!-- (0,2) -->
    <g transform="translate(489.822995 142.44) scale(0.08 -0.08)">
     <use xlink:href="#DejaVuSans-28"/>
     <use xlink:href="#DejaVuSans-30" x="39.013672"/>
     <use xlink:href="#DejaVuSans-2c" x="102.636719"/>
     <use xlink:href="#DejaVuSans-32" x="134.423828"/>
     <use xlink:href="#DejaVuSans-29" x="198.046875"/>
    </g>
   </g>
   <g id="text_34">
    <!-- (-2,0) -->
    <g transform="translate(465.768449 170.503636) scale(0.08 -0.08)">
     <use xlink:href="#DejaVuSans-28"/>
     <use xlink:href="#DejaVuSans-2d" x="39.013672"/>
     <use xlink:href="#DejaVuSans-32" x="75.097656"/>
     <use xlink:href="#DejaVuSans-2c" x="138.720703"/>
     <use xlink:href="#DejaVuSans-30" x="170.507812"/>
     <use xlink:href="#DejaVuSans-29" x="234.130859"/>
    </g>
   </g>
   <g id="text_35">
    <!-- (0,-2) -->
    <g transform="translate(492.495722 197.230909) scale(0.08 -0.08)">
     <use xlink:href="#DejaVuSans-28"/>
     <use xlink:href="#DejaVuSans-30" x="39.013672"/>
     <use xlink:href="#DejaVuSans-2c" x="102.636719"/>
     <use xlink:href="#DejaVuSans-2d" x="134.423828"/>
     <use xlink:href="#DejaVuSans-32" x="170.507812"/>
     <use xlink:href="#DejaVuSans-29" x="234.130859"/>
    </g>
   </g>
   <g id="text_36">
    <!-- (3,1) -->
    <g transform="translate(532.586631 157.14) scale(0.08 -0.08)">
     <use xlink:href="#DejaVuSans-28"/>
     <use xlink:href="#DejaVuSans-33" x="39.013672"/>
     <use xlink:href="#DejaVuSans-2c" x="102.636719"/>
     <use xlink:href="#DejaVuSans-31" x="134.423828"/>
     <use xlink:href="#DejaVuSans-29" x="198.046875"/>
    </g>
   </g>
   <g id="text_37">
    <!-- (0,4) -->
    <g transform="translate(492.495722 117.049091) scale(0.08 -0.08)">
     <use xlink:href="#DejaVuSans-28"/>
     <use xlink:href="#DejaVuSans-30" x="39.013672"/>
     <use xlink:href="#DejaVuSans-2c" x="102.636719"/>
     <use xlink:href="#DejaVuSans-34" x="134.423828"/>
     <use xlink:href="#DejaVuSans-29" x="198.046875"/>
    </g>
   </g>
  </g>
 </g>
 <defs>
  <clipPath id="p0d9cb6d348">
   <rect x="7.2" y="36.380214" width="164.117647" height="29.839572"/>
  </clipPath>
  <clipPath id="p728ce86d57">
   <rect x="242.1" y="7.2" width="88.2" height="88.2"/>
  </clipPath>
  <clipPath id="pdcf4225132">
   <rect x="401.082353" y="11.513904" width="164.117647" height="79.572193"/>
  </clipPath>
  <clipPath id="p807491ae31">
   <rect x="7.2" y="116.110588" width="164.117647" height="82.058824"/>
  </clipPath>
  <clipPath id="pf9af9b6cab">
   <rect x="227.4" y="113.04" width="117.6" height="88.2"/>
  </clipPath>
  <clipPath id="p3ee0de9d58">
   <rect x="431.691176" y="113.04" width="102.9" height="88.2"/>
  </clipPath>
 </defs>
</svg>
